<mxfile host="Electron" agent="Mozilla/5.0 (Windows NT 10.0; Win64; x64) AppleWebKit/537.36 (KHTML, like Gecko) draw.io/26.0.4 Chrome/128.0.6613.186 Electron/32.2.5 Safari/537.36" version="26.0.4">
  <diagram name="Seite-1" id="2_PFGbZ4jDWjoBrt2Cnf">
    <mxGraphModel dx="989" dy="582" grid="1" gridSize="10" guides="1" tooltips="1" connect="1" arrows="1" fold="1" page="1" pageScale="1" pageWidth="827" pageHeight="1169" math="0" shadow="0">
      <root>
        <mxCell id="0" />
        <mxCell id="1" parent="0" />
        <mxCell id="QGmrxwMYpgoLUNAI2-Of-2" style="edgeStyle=orthogonalEdgeStyle;rounded=0;orthogonalLoop=1;jettySize=auto;html=1;entryX=0.5;entryY=0;entryDx=0;entryDy=0;" edge="1" parent="1" source="Df29_Mr0B61EmgmB0qkO-1" target="Df29_Mr0B61EmgmB0qkO-3">
          <mxGeometry relative="1" as="geometry" />
        </mxCell>
        <mxCell id="Df29_Mr0B61EmgmB0qkO-1" value="&lt;div&gt;&lt;br&gt;&lt;/div&gt;&lt;div&gt;Hallo&lt;/div&gt;&lt;b&gt;${name}&lt;/b&gt;" style="shape=note;whiteSpace=wrap;html=1;backgroundOutline=1;darkOpacity=0.05;fillColor=#f5f5f5;strokeColor=#666666;gradientColor=#b3b3b3;" parent="1" vertex="1">
          <mxGeometry x="210" y="190" width="80" height="100" as="geometry" />
        </mxCell>
        <mxCell id="Df29_Mr0B61EmgmB0qkO-2" value="Template&lt;div&gt;Document&lt;/div&gt;" style="text;html=1;align=center;verticalAlign=middle;resizable=0;points=[];autosize=1;strokeColor=none;fillColor=none;" parent="1" vertex="1">
          <mxGeometry x="210" y="150" width="80" height="40" as="geometry" />
        </mxCell>
        <mxCell id="Df29_Mr0B61EmgmB0qkO-3" value="&lt;b&gt;Underdocx&lt;/b&gt;&lt;div&gt;Template Engine&lt;/div&gt;" style="rounded=1;whiteSpace=wrap;html=1;fillColor=#dae8fc;strokeColor=#6c8ebf;gradientColor=#7ea6e0;" parent="1" vertex="1">
          <mxGeometry x="190" y="340" width="120" height="60" as="geometry" />
        </mxCell>
        <mxCell id="Df29_Mr0B61EmgmB0qkO-4" value="name=&quot;Welt&quot;" style="shape=cylinder3;whiteSpace=wrap;html=1;boundedLbl=1;backgroundOutline=1;size=15;fillColor=#fff2cc;strokeColor=#d6b656;gradientColor=#ffd966;" parent="1" vertex="1">
          <mxGeometry x="360" y="330" width="90" height="80" as="geometry" />
        </mxCell>
        <mxCell id="Df29_Mr0B61EmgmB0qkO-7" value="" style="endArrow=classic;html=1;rounded=0;exitX=0;exitY=0.5;exitDx=0;exitDy=0;exitPerimeter=0;entryX=1;entryY=0.5;entryDx=0;entryDy=0;" parent="1" edge="1" target="Df29_Mr0B61EmgmB0qkO-3" source="Df29_Mr0B61EmgmB0qkO-4">
          <mxGeometry width="50" height="50" relative="1" as="geometry">
            <mxPoint x="250" y="280" as="sourcePoint" />
            <mxPoint x="250" y="330" as="targetPoint" />
          </mxGeometry>
        </mxCell>
        <mxCell id="Df29_Mr0B61EmgmB0qkO-9" value="&lt;div&gt;&lt;br&gt;&lt;/div&gt;Hallo&lt;br&gt;&lt;b&gt;Welt&lt;/b&gt;" style="shape=note;whiteSpace=wrap;html=1;backgroundOutline=1;darkOpacity=0.05;fillColor=#f5f5f5;strokeColor=#666666;gradientColor=#b3b3b3;" parent="1" vertex="1">
          <mxGeometry x="210" y="450" width="80" height="100" as="geometry" />
        </mxCell>
        <mxCell id="Df29_Mr0B61EmgmB0qkO-10" value="Data" style="text;html=1;align=center;verticalAlign=middle;resizable=0;points=[];autosize=1;strokeColor=none;fillColor=none;" parent="1" vertex="1">
          <mxGeometry x="380" y="410" width="50" height="30" as="geometry" />
        </mxCell>
        <mxCell id="Df29_Mr0B61EmgmB0qkO-11" value="Final&lt;br&gt;Document" style="text;html=1;align=center;verticalAlign=middle;resizable=0;points=[];autosize=1;strokeColor=none;fillColor=none;" parent="1" vertex="1">
          <mxGeometry x="210" y="550" width="80" height="40" as="geometry" />
        </mxCell>
        <mxCell id="QGmrxwMYpgoLUNAI2-Of-3" style="edgeStyle=orthogonalEdgeStyle;rounded=0;orthogonalLoop=1;jettySize=auto;html=1;entryX=0.5;entryY=0;entryDx=0;entryDy=0;entryPerimeter=0;" edge="1" parent="1" source="Df29_Mr0B61EmgmB0qkO-3" target="Df29_Mr0B61EmgmB0qkO-9">
          <mxGeometry relative="1" as="geometry" />
        </mxCell>
      </root>
    </mxGraphModel>
  </diagram>
</mxfile>
